<svg width="53" height="12" viewBox="0 0 53 12" fill="none" xmlns="http://www.w3.org/2000/svg">
<path d="M0 0.640602H3.09304L3.86248 4.28813C4.11453 5.44923 4.38087 7.25092 4.38087 7.25092H4.41047C4.41047 7.25092 4.69212 5.65763 4.95846 4.43699L5.77177 0.640602H8.56888L9.38321 4.40722C9.64956 5.64325 9.9159 7.25092 9.9159 7.25092H9.94549C9.94549 7.25092 10.2261 5.44922 10.4782 4.25836L11.2476 0.640602H14.4151L11.6323 11.2865H8.50969L7.5627 6.7756C7.36983 5.85268 7.19227 4.70596 7.19227 4.70596H7.16267C7.16267 4.70596 6.98511 5.85268 6.79224 6.7756L5.87484 11.2865H2.70832L0 0.640602Z" fill="white"/>
<path d="M13.561 11.1664L14.8335 9.73736C14.0345 8.76927 13.5906 7.47472 13.5906 6.00051C13.5906 2.81393 15.6622 0.446574 18.9481 0.446574C20.2206 0.446574 21.3156 0.803833 22.1748 1.42904L23.4473 0L24.3647 0.833604L23.0922 2.27804C23.8912 3.24613 24.3351 4.54068 24.3351 6.00051C24.3351 9.1871 22.234 11.5391 18.9481 11.5391C17.6755 11.5391 16.5949 11.1818 15.7367 10.571L14.4784 12L13.561 11.1664ZM16.9061 7.38438L20.3543 3.48327C19.9992 3.14039 19.5399 2.93199 18.9634 2.93199C17.4837 2.93199 16.7285 4.25734 16.7285 5.99949C16.7285 6.5056 16.7877 6.96758 16.9061 7.38438ZM21.1982 5.99949C21.1982 5.50774 21.139 5.0314 21.0053 4.62999L17.5715 8.5157C17.9266 8.85858 18.3858 9.05159 18.9624 9.05159C20.442 9.05159 21.1982 7.74164 21.1982 5.99949Z" fill="white"/>
<path d="M24.6433 0.640602H29.8977C32.058 0.640602 33.8939 1.63846 33.8939 3.81179C33.8939 5.03242 33.2724 5.8958 32.1621 6.40294V6.44811C33.0203 6.7756 33.4642 7.37103 33.6418 8.20464C33.9224 9.48481 33.6857 11.0186 34.0714 11.1233V11.2875H31.0223C30.7263 11.0791 30.8447 9.76918 30.6222 8.81649C30.4294 7.99726 30.0742 7.58046 29.1721 7.58046H27.7363V11.2875H24.6433V0.640602ZM27.7363 5.36094H29.3936C30.2814 5.36094 30.7702 4.97391 30.7702 4.22962C30.7702 3.52947 30.3263 3.0829 29.4385 3.0829H27.7363V5.36094Z" fill="white"/>
<path d="M34.3286 0.640602H37.4216V4.12388L40.6188 0.639576H44.171L40.2197 4.92771L44.3935 11.2855H40.7973L38.1033 7.07229L37.4226 7.84635V11.2855H34.3296L34.3286 0.640602Z" fill="white"/>
<path d="M43.172 7.89152H46.3395C46.4436 8.74053 47.0946 9.14193 48.1151 9.14193C48.7223 9.14193 49.4621 8.90376 49.4621 8.26315C49.4621 7.62255 48.7519 7.45932 47.4498 7.13183C45.6742 6.68526 43.5281 6.07443 43.5281 3.81179C43.5281 1.36949 45.5109 0.446574 47.8937 0.446574C50.0836 0.446574 52.097 1.36949 52.1409 3.6927H49.0774C48.9886 3.11164 48.5743 2.74001 47.7304 2.74001C47.0497 2.74001 46.5762 3.05313 46.5762 3.4843C46.5762 4.1095 47.4794 4.19882 49.0631 4.58585C50.8387 5.01805 52.6154 5.71717 52.6154 7.98084C52.6154 10.2445 50.5581 11.5391 48.0569 11.5391C45.3037 11.5391 43.2169 10.3482 43.172 7.89152Z" fill="white"/>
</svg>
