<svg width="75" height="10" viewBox="0 0 75 10" fill="none" xmlns="http://www.w3.org/2000/svg">
<path d="M74.2479 5.30966C74.2479 4.31186 74.2676 3.30355 74.189 2.30575C74.1497 1.03487 73.1573 0.0370689 71.9683 0.047572C71.1135 0.00555937 69.2957 0.0265657 69.2269 0.047572V9.93105C69.2859 9.94155 71.1135 9.97306 71.9683 9.93105C73.1573 9.94155 74.1399 8.94375 74.189 7.68337C74.2578 6.89563 74.2479 6.09739 74.2479 5.30966ZM72.7446 7.09519C72.7347 7.84092 72.2041 8.46061 71.5065 8.52362C71.251 8.54463 70.9857 8.52362 70.7106 8.52362V1.41298C71.0938 1.42349 71.4869 1.455 71.8701 1.51801C72.4203 1.64405 72.8035 2.19022 72.7544 2.7889C72.774 4.21733 72.7839 5.65626 72.7446 7.09519Z" fill="white"/>
<path d="M66.5543 1.42349C66.1317 0.341661 65.2474 0.00555937 64.1862 0.0265657C62.8106 0.0370689 61.8182 0.929838 61.7789 2.34776C61.7199 4.08079 61.7297 5.82431 61.7789 7.55733C61.8182 8.90174 62.5748 9.74199 63.8619 9.91004C65.4832 10.1201 66.682 9.33237 66.7999 7.55733C66.8589 6.71708 66.849 3.69217 66.8097 3.03047C66.7999 2.48431 66.7213 1.94864 66.5543 1.42349ZM65.3555 7.48381C65.3555 8.07199 64.9231 8.54463 64.3729 8.55513C64.3336 8.55513 64.2943 8.55513 64.255 8.54463C63.6949 8.56564 63.2331 8.09299 63.2134 7.50482V7.41029C63.1938 6.60155 63.2134 5.7928 63.2134 4.97356C63.2134 4.17531 63.2036 3.36657 63.2134 2.56833C63.1938 1.94864 63.636 1.43399 64.2157 1.41298C64.3238 1.41298 64.422 1.42349 64.5301 1.455C65.0116 1.51801 65.3751 1.95915 65.3653 2.48431C65.3653 4.15431 65.3751 5.82431 65.3555 7.48381Z" fill="white"/>
<path d="M39.248 0.814303C38.688 0.215623 37.9019 -0.0784659 37.1158 0.0265657C35.9171 0.0580752 34.9345 1.07688 34.8755 2.35827C34.8264 4.1123 34.846 5.87683 34.8755 7.63086C34.8853 8.27155 35.1408 8.88073 35.5928 9.31136C36.1136 9.784 36.7817 10.0151 37.4597 9.95205C38.688 10.0361 39.7492 9.03828 39.8278 7.72538V7.65186C39.8769 6.7801 39.9064 3.59764 39.8867 2.89393C39.9162 2.1377 39.6902 1.40248 39.248 0.814303ZM38.4128 7.41029C38.4521 8.00897 38.0198 8.53413 37.4597 8.57614C37.3418 8.58664 37.2239 8.56564 37.106 8.53413C36.6245 8.4501 36.2708 7.98796 36.3003 7.4628C36.2806 5.82431 36.2806 4.17531 36.3003 2.52632C36.2806 1.93814 36.713 1.44449 37.2632 1.42349H37.3811C37.9215 1.39198 38.3834 1.84361 38.4128 2.42129V2.53682C38.4325 3.35607 38.4128 4.17532 38.4128 5.00506C38.4227 5.81381 38.4325 6.61205 38.4128 7.41029Z" fill="white"/>
<path d="M42.3039 0.0370689C42.3137 3.1145 42.3137 6.85362 42.3137 9.92055C42.3137 9.98357 42.3039 9.94155 42.3432 9.94155C42.7854 9.95205 43.316 9.95205 43.7876 9.95205L43.7778 5.97136H45.8511L45.8609 4.4484H43.7876V1.42349H46.5978V0.0265657L42.3039 0.0370689Z" fill="white"/>
<path d="M59.3224 4.55343H56.7382V5.82431H57.9566C57.9959 6.22343 57.9861 8.06149 57.9861 8.46061C57.5537 8.7862 57.0035 8.89124 56.4925 8.72318C55.7359 8.47111 55.7457 7.75689 55.7064 6.94815C55.6671 5.97136 55.6475 5.39368 55.6377 4.41689C55.6278 3.8077 55.6278 3.19852 55.6573 2.58934C55.6377 2.05368 56.0012 1.59154 56.5023 1.52852C57.0428 1.41298 57.5635 1.77009 57.6815 2.34776C57.6913 2.37927 57.6913 2.41078 57.7011 2.4528C57.7601 2.77839 57.7797 3.1145 57.819 3.4611H59.3126C59.2831 3.09349 59.2241 2.75739 59.1848 2.43179C59.0669 1.49701 58.7132 0.688265 57.8387 0.320654C56.9052 -0.151988 55.7949 -0.015447 54.9892 0.677762C54.773 0.856316 54.6059 1.08739 54.4979 1.34996C54.2915 1.85412 54.1834 2.40028 54.1736 2.94644C54.1343 4.14381 54.1343 5.33066 54.1638 6.52802C54.1736 7.08469 54.2424 7.63086 54.3603 8.16652C54.5568 9.16432 55.3527 9.89954 56.3058 9.95205C58.5265 10.2461 59.3126 8.96476 59.3126 8.96476L59.3224 4.55343Z" fill="white"/>
<path d="M15.8722 0.0265657C15.3711 2.82041 14.8307 5.88733 14.3295 8.68117C14.2509 9.1013 14.1821 9.52142 14.1134 9.95205H15.5283C15.656 9.22734 15.7838 8.51312 15.9115 7.80941H17.9062C18.0437 8.52362 18.1715 9.22734 18.309 9.94155H19.8124C19.1737 6.62255 18.5448 3.32456 17.9062 0.0160625C17.3068 0.0160625 15.8722 0.0265657 15.8722 0.0265657ZM16.1375 6.37048L16.8646 2.08519H16.9137L17.6507 6.37048H16.1375Z" fill="white"/>
<path d="M7.45139 9.94155H11.6765V8.53413H8.90563V5.98186H10.9396V4.4589C10.35 4.4589 9.47553 4.4694 8.87615 4.4694C8.87615 4.4694 8.88598 1.63355 8.8958 1.43399H11.6667V0.0370689H7.44157L7.45139 9.94155Z" fill="white"/>
<path d="M0.750122 9.94155H2.20436V5.98186H4.28745V4.4589H2.22401V1.43399H5.05387V0.0370689H0.750122V9.94155Z" fill="white"/>
<path d="M25.9045 5.4462C26.6316 5.1206 27.1229 4.38538 27.172 3.54513C27.2408 3.06198 27.2408 2.55783 27.172 2.07468C27.0737 0.814303 26.2091 0.0265657 24.9513 0.0265657C24.0768 0.0265657 22.2787 0.0160625 22.2099 0.0265657V9.95205H23.6543V5.93985C23.8705 5.93985 24.4993 5.92934 24.4993 5.92934C24.8531 7.13721 25.3739 8.7757 25.7374 9.96256H27.2899C26.8576 8.53413 26.3171 6.7696 25.9045 5.4462ZM25.7374 3.26154C25.7276 3.96525 25.1872 4.30135 24.4993 4.34337C24.2341 4.36437 23.9786 4.34337 23.7035 4.34337V1.27644C24.0867 1.25544 24.4797 1.27644 24.8629 1.32896C25.4033 1.44449 25.7374 1.65456 25.7472 2.30575C25.7374 2.50531 25.7374 3.10399 25.7374 3.26154Z" fill="white"/>
</svg>
