<svg width="55" height="38" viewBox="0 0 55 38" fill="none" xmlns="http://www.w3.org/2000/svg">
<path d="M43.6635 14.8086C43.4475 15.2382 43.149 15.5859 42.7163 15.8303C42.2484 16.0973 41.7281 16.2249 41.2198 16.3818C40.3954 16.6375 39.5886 16.9446 38.8051 17.2934C37.7703 17.7574 36.7827 18.3202 35.7706 18.8316C34.8529 19.2956 33.9466 19.7777 33.0466 20.2767C32.7663 20.4279 32.4917 20.5786 32.2108 20.735C31.5501 21.0951 30.8957 21.4666 30.2526 21.8673C30.2407 21.873 30.235 21.8786 30.2236 21.8843C29.5453 22.3082 28.8494 22.709 28.1654 23.1323C27.8498 23.3299 27.5223 23.5269 27.2358 23.7651C27.1073 23.8695 26.9845 23.9796 26.844 24.084C26.7912 24.1247 26.7559 24.1828 26.7559 24.2816C26.7622 24.5023 26.7332 24.7287 26.7155 24.9432C26.7036 25.0713 26.7622 25.222 26.6746 25.3377C26.6627 25.3547 26.6564 25.4015 26.6689 25.4072C26.7917 25.5172 26.6922 25.6392 26.6922 25.7554C26.6922 25.9468 26.6803 26.1444 26.6922 26.3414C26.6979 26.5909 26.6632 26.8522 26.6632 27.1074C26.657 27.2874 26.616 27.4737 26.7099 27.6419C26.7161 27.6476 26.7099 27.6645 26.7042 27.6763C26.5575 27.8796 26.7218 28.0884 26.6985 28.2978C26.6695 28.5185 26.6865 28.7387 26.6865 28.9588C26.6809 29.3421 26.6689 29.7254 26.7155 30.1025C26.7212 30.1662 26.6746 30.1487 26.657 30.1724C26.5575 30.2825 26.5694 30.4564 26.6865 30.5439C26.7155 30.567 26.7332 30.6133 26.7218 30.6133C26.4932 30.6364 26.6393 30.7872 26.6632 30.8453C26.7332 30.9847 26.6809 31.1298 26.628 31.2111C26.5109 31.4024 26.6337 31.5306 26.6809 31.6751C26.7042 31.7332 26.7099 31.7682 26.6752 31.8032C26.558 31.8958 26.5814 31.9946 26.6456 32.1046C26.6695 32.1509 26.728 32.1921 26.628 32.2616C26.5518 32.3141 26.5751 32.4354 26.6513 32.5054C26.7042 32.5579 26.8503 32.5754 26.6865 32.668C26.7565 32.8012 26.5927 32.9756 26.7502 33.0981C26.8207 33.1501 26.8264 33.202 26.8031 33.2782C26.7502 33.4345 26.9026 33.5452 26.9026 33.6959C26.9026 33.7947 26.9958 33.876 26.8617 33.9691C26.8207 33.9979 26.8736 34.1255 26.844 34.2186C26.8264 34.2942 26.8617 34.3987 26.9902 34.4043C27.0311 34.41 27.0311 34.4624 27.0311 34.4969C27.0311 34.6188 27.0601 34.7464 27.1243 34.8339C27.2528 35.0021 27.1477 35.0777 27.0248 35.1534C26.9725 35.1884 26.914 35.2115 27.0305 35.229C27.0828 35.2409 27.0425 35.2459 27.0305 35.264C26.9134 35.4322 26.9606 35.5835 27.1477 35.6586C27.1829 35.6704 27.3114 35.6761 27.1829 35.7636C27.1067 35.8155 27.2062 35.8217 27.2295 35.8386C27.358 35.9318 27.2824 36.0187 27.2238 36.1C27.1886 36.1463 27.1596 36.3145 27.2062 36.3495C27.2415 36.3845 27.2648 36.4421 27.2938 36.4596C27.4689 36.5702 27.358 36.6978 27.2995 36.7853C27.2233 36.9072 27.2352 36.971 27.3757 37.0291C27.2824 37.0754 27.2182 37.1279 27.1829 37.2148C26.9958 37.65 26.5745 37.9001 26.1129 37.9001C26.031 37.9001 25.9491 37.8945 25.8729 37.877C25.335 37.7782 25.0252 37.4937 24.879 36.9597C24.721 36.3963 24.7562 35.8274 24.7619 35.2533C24.7676 34.7481 24.8262 34.2429 24.8148 33.7382C24.7972 33.2042 24.8847 32.6765 24.8501 32.1425C24.8211 31.6954 24.8734 31.2483 24.891 30.8013C24.92 30.1804 24.9029 29.5538 24.9029 28.9329C24.9086 27.853 24.9086 26.7738 24.9206 25.6939C24.9206 25.5951 24.9086 25.5494 24.8677 25.5494C24.8444 25.5494 24.8091 25.5669 24.7625 25.59C24.3707 25.8108 24.008 26.0715 23.6578 26.3442C22.9851 26.8782 22.2955 27.3952 21.6172 27.923C21.0969 28.3351 20.588 28.7534 20.0678 29.1654C19.3491 29.7344 18.6418 30.3147 17.9106 30.8718C17.4779 31.2032 17.1214 31.6152 16.7183 31.9754C16.4665 32.2017 16.1628 32.3699 15.9519 32.6426C15.7415 32.9096 15.4788 33.1359 15.2446 33.3804C14.8057 33.8387 14.3735 34.3089 13.8823 34.7148C13.8124 34.7729 13.7595 34.8367 13.7072 34.9067C13.4962 35.185 13.2449 35.4288 12.9999 35.6845C12.7776 35.9222 12.5086 36.1197 12.3039 36.3698C12.0703 36.6599 11.7717 36.7875 11.4386 36.7875C11.3624 36.7875 11.2811 36.7819 11.1929 36.7638C10.7779 36.6944 10.4384 36.4793 10.3043 36.0498C10.2167 35.7483 10.211 35.4638 10.4151 35.1912C10.8183 34.6572 11.2805 34.1757 11.7831 33.7281C12.2914 33.2697 12.7884 32.7939 13.3029 32.3349C13.9869 31.7197 14.7005 31.1281 15.4311 30.5704C15.8757 30.234 16.2964 29.8738 16.7115 29.4962C17.0686 29.1835 17.466 28.9159 17.8282 28.6083C18.4422 28.0912 19.0847 27.5984 19.7284 27.117C20.202 26.7625 20.687 26.4204 21.1725 26.0834C22.1198 25.4218 23.0431 24.7366 23.9551 24.0344C24.2297 23.8193 24.5163 23.6223 24.8085 23.4422C24.966 23.3434 24.9137 23.1984 24.9314 23.0821C24.9666 22.8557 24.9496 22.6237 24.9433 22.3917C24.937 22.2867 24.9137 22.2405 24.8671 22.2405C24.8381 22.2405 24.8029 22.258 24.75 22.2935C24.5686 22.4087 24.4054 22.5543 24.2121 22.6418C23.7089 22.8682 23.1944 23.042 22.6571 23.042C22.4638 23.042 22.2653 23.0189 22.0663 22.9664C21.5222 22.8269 21.1953 22.4555 21.0725 21.9102C20.9792 21.4863 20.9906 21.063 21.0025 20.6396C21.0145 20.3783 21.0315 20.1113 20.9616 19.8499C20.9377 19.7568 20.9377 19.6411 20.9735 19.5536C21.1077 19.1765 21.0321 18.7814 21.0963 18.3987C21.2135 17.7134 21.2948 17.0174 21.6223 16.3903C21.9208 15.8156 22.2477 15.2466 22.7799 14.8464C23.1131 14.5913 23.4696 14.3706 23.8966 14.2893C23.9727 14.2774 24.0484 14.2656 24.1189 14.2656C24.1894 14.2656 24.2536 14.2718 24.3179 14.2949C24.5049 14.3531 24.6215 14.4981 24.5868 14.6838C24.5106 15.0841 24.3941 15.456 24.0552 15.7338C23.8971 15.8619 23.7743 16.0414 23.7044 16.239C23.6811 16.309 23.6168 16.3321 23.5873 16.3959C23.3706 16.8605 23.1836 17.342 23.0608 17.8353C23.0141 18.0035 22.9789 18.2005 23.0727 18.3806C23.0903 18.4156 23.1079 18.4681 23.096 18.5031C22.9442 18.8739 22.9675 19.2804 22.9379 19.6636C22.9146 20.0176 22.8856 20.4065 23.0784 20.7435C23.1659 20.8998 23.2944 20.9986 23.4821 20.9986H23.5111C24.0836 20.9986 24.6567 20.5691 24.7972 20.0176C24.9609 19.3791 25.0195 18.7294 25.09 18.0848C25.1252 17.7772 25.119 17.452 25.1662 17.1562C25.2247 16.756 25.2537 16.3553 25.3004 15.9607C25.347 15.5661 25.3646 15.1716 25.3936 14.777C25.4226 14.4349 25.4055 14.0866 25.5687 13.7671C25.7438 13.4302 26.2004 13.2044 26.6149 13.2044C26.7786 13.2044 26.9367 13.2388 27.0652 13.3144C27.2636 13.4307 27.416 13.6046 27.3865 13.8778C27.3631 14.1098 27.4336 14.3593 27.3808 14.58C27.2989 14.9164 27.416 15.2472 27.3108 15.5893C27.1937 15.9381 27.2176 16.3208 27.188 16.6928C27.1238 17.465 27.0419 18.231 27.001 18.997C26.9776 19.3803 26.9191 19.7635 26.9776 20.1519C27.0129 20.3958 26.9776 20.6684 26.9367 20.9123C26.8844 21.2317 26.9077 21.5507 26.8844 21.8702C26.8787 21.9165 26.8611 21.974 26.9077 22.0034C26.9253 22.0147 26.9367 22.0147 26.9487 22.0147C26.9896 22.0147 27.0305 21.9859 27.0595 21.9627C27.7788 21.4462 28.5679 21.0573 29.3048 20.5753C29.7665 20.2738 30.2697 20.0356 30.7137 19.7105C30.9071 19.5711 31.135 19.5016 31.3392 19.3854C32.0232 18.9964 32.6958 18.5906 33.3855 18.2073C34.0456 17.8359 34.7125 17.4757 35.3732 17.1162C35.9344 16.8142 36.4899 16.5009 37.0567 16.1989C37.2029 16.1238 37.349 16.0363 37.4894 15.9494C37.5656 15.9093 37.6532 15.8455 37.5304 15.7812C37.0744 15.5492 37.0334 15.1433 37.0391 14.7076C37.0391 14.313 37.1267 13.9066 37.0914 13.5239C37.0624 13.2162 37.1147 12.9204 37.0971 12.6184C37.0852 12.3046 37.1613 11.98 37.1733 11.6549C37.179 11.3241 37.1852 10.9928 37.1676 10.6563C37.15 10.4243 37.0095 10.308 36.7759 10.273C36.7235 10.2618 36.6707 10.2555 36.6184 10.2555C36.2204 10.2555 35.9691 10.5225 35.7177 10.7957C35.6649 10.8539 35.6182 10.912 35.5597 10.9696C35.3846 11.1497 35.2265 11.3354 35.1333 11.5849C35.0514 11.7937 35.0104 12.0032 35.0161 12.2233C35.0161 12.2352 35.0104 12.2583 35.0104 12.2583H34.9985C34.7642 12.2583 34.9337 12.4147 34.9104 12.4959C34.8984 12.5479 34.9394 12.6004 34.8461 12.6523C34.7176 12.7167 34.8171 12.8555 34.8581 12.9424C34.9053 13.0525 34.8933 13.0988 34.8114 13.1744C34.7119 13.2676 34.6011 13.3839 34.7648 13.5233C34.8171 13.5696 34.8058 13.8541 34.7705 13.8541H34.7296C34.6301 13.8541 34.642 13.9704 34.6477 13.9991C34.6886 14.0923 34.6301 14.173 34.6244 14.2548C34.6124 14.4349 34.5658 14.6319 34.6244 14.7883C34.6886 14.9452 34.5544 15.0903 34.6363 15.2009C34.7824 15.3923 34.5488 15.561 34.6073 15.6999C34.7125 15.9375 34.5254 16.0595 34.4845 16.2395C34.4083 16.524 34.2389 16.7097 33.9989 16.8379C33.73 16.9886 33.4673 17.1625 33.1393 17.1625C33.1103 17.1625 33.075 17.1625 33.046 17.1568C32.7248 17.128 32.5025 16.9192 32.4962 16.594C32.4729 15.92 32.5548 15.2534 32.5895 14.58C32.619 14.0578 32.648 13.5351 32.6776 13.0124C32.7185 12.3627 32.7066 11.7006 32.8004 11.0565C32.9113 10.2499 33.572 9.65213 34.3674 9.65213C34.4083 9.65213 34.4493 9.65213 34.4902 9.65777C34.5078 9.65777 34.5368 9.66906 34.5601 9.66906C34.5658 9.66906 34.5721 9.66906 34.5778 9.66341C34.6539 9.61148 34.7239 9.58778 34.7938 9.58778C34.8876 9.58778 34.9814 9.61656 35.0804 9.64592C35.1566 9.66285 35.2271 9.66906 35.297 9.66906C35.6478 9.66906 35.9111 9.44271 36.1504 9.17571C36.5945 8.67051 37.0744 8.22965 37.7697 8.10208C37.8749 8.08458 37.9744 8.07273 38.0796 8.07273C38.3428 8.07273 38.5885 8.14837 38.7932 8.37472C38.8807 8.4735 38.9336 8.57172 38.9745 8.688C38.9978 8.76872 38.9802 8.86807 39.0803 8.90871C39.1155 8.92621 39.1036 8.955 39.0803 8.98379C39.0098 9.07128 39.0621 9.14636 39.1093 9.222C39.173 9.33828 39.2264 9.44214 39.074 9.54092C39.0041 9.58721 39.0041 9.92985 39.0803 9.96484C39.1912 10.023 39.1445 10.1161 39.1212 10.1681C39.086 10.2612 39.0922 10.3538 39.0922 10.4413C39.0979 10.5338 39.1735 10.6383 39.0274 10.6964C39.0155 10.6964 39.0098 10.7314 39.0155 10.7483C39.0564 11.0904 38.9279 11.4274 38.9569 11.7757C38.9688 11.8801 38.9336 12.002 39.0155 12.0952C39.074 12.1702 38.9745 12.194 38.9626 12.2397C38.9216 12.396 39.0445 12.5185 39.0155 12.6636C38.9922 12.7974 39.0211 12.9424 38.9455 13.0757C38.8989 13.1513 38.9455 13.2732 38.9575 13.3427C38.9927 13.5109 38.8523 13.6966 39.0041 13.8417C39.1445 13.9698 39.057 14.1436 39.1332 14.3C39.2264 14.4976 39.4078 14.637 39.6125 14.637C39.6591 14.637 39.712 14.6313 39.7643 14.6139C40.4426 14.37 41.0743 14.033 41.7054 13.6853C41.98 13.534 42.2666 13.4589 42.5707 13.4589C42.6702 13.4589 42.7692 13.4651 42.8744 13.4826C43.0205 13.5058 43.1666 13.4883 43.307 13.5464C43.5527 13.6509 43.7983 14.0573 43.746 14.3068C43.746 14.3124 43.734 14.3186 43.7403 14.3243C43.8563 14.501 43.7403 14.6517 43.6635 14.8086Z" fill="white"/>
<path d="M17.3079 2.60806C17.2556 2.67184 17.197 2.73619 17.1794 2.84005C17.1618 2.93319 17.1095 3.05512 16.9634 3.07262C16.8462 3.09012 16.7877 3.21204 16.7115 3.28147C16.2089 3.75168 15.8114 4.30882 15.4487 4.89474C14.9046 5.76516 14.5776 6.72872 14.1216 7.6347C14.116 7.65163 14.104 7.66969 14.104 7.68663C14.0983 8.13934 13.7885 8.47576 13.6361 8.87033C13.5599 9.0679 13.5252 9.28296 13.4376 9.47375C13.204 9.96146 13.0988 10.4955 12.906 10.9944C12.8298 11.1864 12.8128 11.3947 12.7656 11.5979C12.7474 11.6904 12.6894 11.7717 12.6604 11.8649C12.6371 11.9806 12.5723 12.0624 12.6308 12.1956C12.6723 12.2826 12.5609 12.3757 12.508 12.4451C12.3795 12.6371 12.3795 12.851 12.3096 13.0542C12.292 13.1067 12.2863 13.1643 12.2573 13.2111C12.0174 13.6001 12.0174 14.0415 11.9884 14.4767C11.9707 14.6974 11.9474 14.9119 11.7308 15.0513C11.7018 15.0745 11.6785 15.1208 11.6665 15.1614C11.5324 15.5673 11.351 15.9624 11.1935 16.3632C11.0593 16.7114 10.9945 17.0829 10.9183 17.4537C10.7841 18.069 10.6147 18.673 10.4799 19.2821C10.439 19.4678 10.4333 19.6653 10.4157 19.8567C10.41 19.8973 10.4037 19.9374 10.3691 19.973C10.2053 20.1005 10.2053 20.2744 10.2343 20.4545C10.2696 20.6577 10.2758 20.8552 10.1234 21.0235C10.1058 21.0466 10.0768 21.0754 10.0768 21.0991C10.0944 21.4824 9.88407 21.8301 9.91875 22.2134C9.93069 22.2941 9.91307 22.3646 9.84882 22.4284C9.73795 22.5441 9.80788 22.7129 9.77263 22.8524C9.70269 23.1481 9.63844 23.4445 9.63219 23.7516C9.63219 23.8272 9.63788 23.8735 9.69075 23.9435C9.80163 24.0767 9.76069 24.2568 9.726 24.4131C9.69701 24.5413 9.65607 24.6688 9.56226 24.7908C9.41556 24.9821 9.45707 25.2378 9.40419 25.4642C9.38088 25.5567 9.39225 25.6612 9.36326 25.7543C9.31038 25.9107 9.527 25.9513 9.48664 26.0738C9.45764 26.172 9.27001 26.1957 9.32857 26.3577C9.33426 26.3696 9.32289 26.3927 9.31663 26.4102C9.05964 27.1006 9.07726 27.8378 8.96014 28.5518C8.85495 29.1846 8.7907 29.823 8.70883 30.4558C8.63833 30.9842 8.57976 31.5119 8.4922 32.0284C8.41033 32.5274 8.38133 33.0388 8.13571 33.4916C7.98958 33.7467 7.76727 33.8861 7.48071 33.9268C7.41078 33.9386 7.35222 33.9443 7.29365 33.9443C6.77341 33.9443 6.54541 33.5672 6.45785 33.1201C6.32367 32.4704 6.15935 31.8202 6.07179 31.1642C6.03654 30.9322 6.00754 30.6997 5.94898 30.4739C5.84379 30.0906 5.84948 29.6842 5.71529 29.3184C5.65105 29.1445 5.73861 28.912 5.53392 28.7901C5.52198 28.7844 5.52198 28.7381 5.52823 28.7206C5.65105 28.3605 5.48161 28.0303 5.44067 27.6876C5.37643 27.1249 5.28261 26.5615 5.20074 26.0038C5.09555 25.3247 4.98468 24.64 4.87949 23.961C4.80956 23.5433 4.73906 23.1199 4.67481 22.7016C4.55143 21.9294 4.42918 21.1634 4.31206 20.3918C4.28875 20.2349 4.25975 20.096 4.14262 19.9797C4.07269 19.9103 4.09032 19.7765 4.10737 19.6896C4.125 19.5795 4.07212 19.4633 4.13068 19.3526C4.14831 19.3176 4.14262 19.2945 4.10169 19.2945C4.07269 19.2945 4.03175 19.3063 3.96125 19.3238C4.01981 19.1957 3.99025 19.1026 3.91463 19.0337C3.868 18.9874 3.81513 18.9643 3.77419 18.9643C3.71563 18.9643 3.669 19.0043 3.64001 19.0913C3.58713 19.2832 3.44669 19.4164 3.33013 19.5558C3.28351 19.6078 3.30114 19.6196 3.30114 19.6659C3.30682 19.7647 3.30114 19.8573 3.24883 19.9504C3.12033 20.1767 3.03846 20.4262 2.94521 20.6639C2.84571 20.9134 2.78715 21.1685 2.70527 21.4242C2.54721 21.8944 2.30784 22.3302 2.13272 22.7942C2.06279 22.9912 1.82854 23.1193 1.61248 23.1713C1.48398 23.2001 1.36117 23.2232 1.2503 23.2232C1.02173 23.2232 0.817614 23.1363 0.624868 22.8693C0.48443 22.6717 0.473059 22.451 0.542993 22.2309C0.665805 21.8363 0.823299 21.4412 0.93474 21.041C1.05187 20.5877 1.23893 20.1643 1.39699 19.7291C1.51411 19.4153 1.62499 19.0901 1.74154 18.7774C1.97011 18.1796 2.16286 17.57 2.3556 16.9604C2.62454 16.0956 2.94009 15.2489 3.24997 14.401C3.40746 13.9602 3.79409 13.652 4.27908 13.652C4.40189 13.652 4.53039 13.6757 4.66514 13.7163C4.91077 13.7914 5.07395 13.9602 5.18539 14.186C5.39633 14.6155 5.4077 15.092 5.51288 15.5503C5.61807 16.0431 5.67095 16.5483 5.75225 17.0417C5.79319 17.2855 5.85175 17.5232 5.90406 17.7676C5.95068 17.9939 6.01493 18.2197 5.99162 18.476C5.96831 18.7368 6.06781 19.0156 6.10875 19.2883C6.13774 19.4796 6.15537 19.6715 6.19119 19.8629C6.23213 20.1186 6.30832 20.3625 6.41919 20.5945C6.47206 20.6989 6.51869 20.8033 6.51869 20.9196C6.52437 21.0184 6.513 21.1228 6.60056 21.1922C6.68812 21.2679 6.542 21.2972 6.57156 21.3661C6.741 21.7607 6.6415 22.2134 6.85187 22.6023C6.91612 22.718 6.91612 22.8343 6.86381 22.9681C6.75294 23.252 6.78194 23.5309 6.96957 23.7866C7.05656 23.9023 7.03325 24.0417 7.0105 24.1749C6.95763 24.4651 7.02813 24.7558 7.07475 25.0284C7.10375 25.196 7.15663 25.3705 7.16231 25.5505C7.168 25.6544 7.30843 25.6313 7.32606 25.7537C7.4955 25.4405 7.4955 25.1272 7.53075 24.8252C7.61262 24.2218 7.70644 23.6178 7.81162 23.0144C7.97537 22.1264 8.10387 21.2261 8.26136 20.3325C8.35461 19.7923 8.48367 19.2583 8.59511 18.7244C8.74124 17.9872 8.91636 17.2562 9.10342 16.5246C9.29048 15.7987 9.47185 15.0677 9.70554 14.3542C9.77547 14.151 9.77547 13.9303 9.83403 13.7214C9.98016 13.1993 10.1439 12.6822 10.2838 12.1601C10.348 11.9224 10.4242 11.6842 10.4771 11.4409C10.5294 11.1677 10.6465 10.9007 10.7051 10.6281C10.7813 10.2917 10.9507 9.99533 11.0559 9.6764C11.3891 8.59713 11.8041 7.55228 12.1959 6.49615C12.6576 5.25375 13.1255 4.02319 13.6224 2.79885C13.7976 2.36985 13.9556 1.93407 14.166 1.52201C14.382 1.10373 14.6629 0.732309 15.049 0.436524C15.3475 0.203961 15.6573 0.100098 15.9729 0.100098C16.2538 0.100098 16.5403 0.180817 16.8263 0.332096C17.3705 0.599093 17.5513 1.0693 17.6451 1.63208C17.711 2.04528 17.5479 2.32356 17.3079 2.60806Z" fill="white"/>
<path d="M20.2486 17.0896C20.2253 17.1015 20.2196 17.1416 20.2196 17.1709C20.2253 17.5886 19.9273 17.7918 19.6351 18.0069C19.1791 18.3433 18.7464 18.7035 18.4428 19.2025C18.3666 19.3244 18.3376 19.4582 18.3143 19.5801C18.2853 19.7602 18.2034 19.934 18.2091 20.131C18.2091 20.2704 18.0977 20.3924 18.092 20.5549C18.0687 21.304 18.0044 22.0587 17.9811 22.8128C17.9692 23.243 17.9988 23.7008 17.7241 24.0959C17.3904 24.5655 16.923 24.7981 16.3675 24.8856H16.3146C16.1043 24.8856 15.9291 24.7117 15.8473 24.4504C15.7825 24.2697 15.7887 24.084 15.8007 23.8402C15.7307 23.5269 15.8825 23.1611 15.824 22.8015C15.7773 22.4821 15.8296 22.1688 15.8359 21.8555C15.8416 21.5941 15.8359 21.3215 15.9235 21.0545C16.0167 20.7694 15.9934 20.4562 16.0167 20.1547C16.0633 19.522 16.04 18.8835 16.1685 18.257C16.3499 17.386 16.8934 17.0264 17.7122 16.922C18.1273 16.8638 18.49 16.7013 18.8579 16.5387C19.1035 16.4337 19.3372 16.2892 19.6124 16.2717H19.659C19.8227 16.2717 19.9575 16.3242 20.0627 16.4749C20.1502 16.6019 20.2031 16.7363 20.2674 16.8695C20.2958 16.9333 20.3305 17.0196 20.2486 17.0896Z" fill="white"/>
<path d="M14.3497 20.4093C14.2797 20.6244 14.3144 20.8626 14.2564 21.0765C14.1455 21.4711 14.2274 21.8781 14.1455 22.2602C14.0347 22.8292 13.9761 23.4038 13.8709 23.9785C13.8061 24.3205 13.8243 24.6637 13.8243 25.012C13.83 25.331 13.7777 25.6442 13.6895 25.9524C13.6662 26.0399 13.5844 26.1263 13.7595 26.1557C13.8533 26.1675 13.7657 26.2714 13.7538 26.2776C13.333 26.3995 13.0817 26.7822 12.6837 26.9448C12.5786 26.9911 12.4734 27.0142 12.3739 27.0142C12.2511 27.0142 12.1282 26.9792 12.0054 26.9216C11.9292 26.8804 11.8946 26.8116 11.865 26.7354C11.7831 26.4977 11.7541 26.2595 11.7598 26.01C11.7831 25.5285 11.836 25.047 11.8297 24.5706C11.8241 24.2048 11.8883 23.8453 11.9116 23.4851C11.9469 22.8868 11.9816 22.2834 12.0287 21.6799C12.0759 21.059 12.0697 20.4206 12.3562 19.8347C12.6365 19.2538 13.0988 18.8943 13.7066 18.7435C13.7709 18.726 13.83 18.7204 13.8823 18.7204C14.1689 18.7204 14.2973 18.9405 14.332 19.2538C14.3377 19.3063 14.3201 19.3639 14.361 19.4108C14.4139 19.4627 14.4077 19.492 14.3434 19.544C14.2439 19.6247 14.2968 19.741 14.3434 19.8341C14.4429 20.0322 14.4139 20.2179 14.3497 20.4093Z" fill="white"/>
<path d="M31.1112 12.3362C31.0702 12.6438 31.0412 12.9515 30.9884 13.2535C30.9474 13.468 30.9531 13.6768 30.9764 13.8913C30.9997 14.1177 30.9764 14.3446 30.9531 14.5704C30.9298 14.7736 30.9884 14.965 30.9588 15.1682C30.9469 15.2726 30.8417 15.3076 30.836 15.412C30.8184 15.5689 30.7894 15.714 30.9468 15.8128C30.9412 15.8303 30.9235 15.8359 30.9002 15.8359C30.8769 15.8359 30.8474 15.8303 30.824 15.8303C30.7888 15.8303 30.7774 15.8472 30.853 15.9404C30.9116 16.0042 30.7945 16.0104 30.7888 16.0679C30.7535 16.4919 30.6717 16.9271 30.7479 17.3397C30.8121 17.6993 30.7126 17.9725 30.5079 18.2158C30.2276 18.5465 29.8529 18.7498 29.4555 18.8948C29.3622 18.9298 29.2684 18.9468 29.1866 18.9468C28.8704 18.9468 28.6663 18.7148 28.6834 18.3377C28.7067 17.8387 28.7709 17.3335 28.8119 16.8289C28.8585 16.2542 28.8943 15.6739 28.946 15.0993C28.9932 14.6178 29.0575 14.1295 29.1041 13.648C29.1331 13.3867 29.157 13.1197 29.174 12.8589C29.215 12.3831 29.3611 11.9416 29.7466 11.6346C30.0098 11.4313 30.314 11.2801 30.6648 11.2801H30.7115C30.9281 11.2857 31.0276 11.3851 31.0452 11.5939C31.0509 11.6171 31.0333 11.6521 31.0452 11.6634C31.193 11.8773 31.135 12.098 31.1112 12.3362Z" fill="white"/>
<path d="M15.3322 14.7386C15.2798 15.1625 15.028 15.4583 14.7124 15.7022C14.4963 15.8647 14.2627 16.0036 14.0227 16.1374C13.9352 16.1893 13.8357 16.213 13.7424 16.213C13.4388 16.213 13.1693 15.9522 13.1812 15.5627C13.2461 15.1975 13.4155 14.8374 13.7424 14.5766C14.0051 14.3677 14.245 14.1239 14.6021 14.0545C14.6544 14.0426 14.7073 14.037 14.7539 14.037C15.1218 14.0364 15.3788 14.3327 15.3322 14.7386Z" fill="white"/>
<path d="M31.9652 7.97112C31.9885 8.12184 31.9475 8.27255 31.8657 8.38883C31.6081 8.74276 31.3568 9.11418 30.9417 9.32304C30.8536 9.36932 30.7251 9.39247 30.5847 9.39247C30.38 9.39247 30.1639 9.34054 30.0531 9.24175C29.9069 9.10233 29.8654 8.90476 29.8893 8.7309C29.9712 8.0462 30.6319 7.47213 31.3215 7.46535C31.7662 7.50091 31.8947 7.53591 31.9652 7.97112Z" fill="white"/>
<path d="M33.1791 21.9125L32.4598 24.4662C32.3603 24.832 32.1266 25.7955 32.1266 25.7955H32.1147C32.1147 25.7955 31.8804 24.832 31.7753 24.4662L31.2493 22.5859C30.641 22.9229 30.0332 23.2706 29.4424 23.6364C29.3315 23.7058 29.2201 23.7758 29.1035 23.8453V27.7458H30.4135V24.8145C30.4135 24.5768 30.3845 23.642 30.3845 23.642H30.4022C30.4022 23.642 30.6068 24.5243 30.6768 24.7326L31.5126 27.7452H32.7111L33.5589 24.727C33.6237 24.5119 33.8278 23.6415 33.8278 23.6415H33.8454C33.8454 23.6415 33.8221 24.57 33.8221 24.8083V27.7452H35.1549V21.9125H33.1791Z" fill="white"/>
<path d="M39.3759 21.9125V25.7142C39.3759 26.2832 39.0547 26.6891 38.3821 26.6891C37.6685 26.6891 37.3706 26.3058 37.3706 25.7374V21.9125H35.9207V25.6905C35.9207 27.0492 36.7395 27.8496 38.3821 27.8496C40.0247 27.8496 40.8315 27.0317 40.8315 25.6905V21.9125H39.3759Z" fill="white"/>
<path d="M44.3106 24.1473C43.4276 23.9497 42.9773 23.8509 42.9773 23.4451C42.9773 23.1199 43.3167 22.8998 43.825 22.8998C44.3629 22.8998 44.708 23.1549 44.766 23.6014H46.1869C46.134 22.3771 45.1464 21.8081 43.8722 21.8081C42.598 21.8081 41.5388 22.3534 41.5388 23.6014C41.5388 24.8495 42.6145 25.1334 43.6323 25.3716C44.4391 25.5686 44.9184 25.6617 44.9184 26.1257C44.9184 26.5897 44.4504 26.741 43.9711 26.741C43.2752 26.741 42.8891 26.4972 42.8192 25.9112H41.3574C41.3927 27.1994 42.4161 27.8846 43.9768 27.8846C45.3329 27.8846 46.3853 27.2056 46.3853 25.9807C46.3859 24.7337 45.4039 24.4024 44.3106 24.1473Z" fill="white"/>
<path d="M48.4447 21.8798H46.9885V27.6459H48.4447V21.8798Z" fill="white"/>
<path d="M53.045 25.7204C52.9807 26.2832 52.5481 26.6902 51.8987 26.6902C51.0334 26.6902 50.4898 25.918 50.4898 24.85C50.4898 23.782 50.9396 22.998 51.8925 22.998C52.5179 22.998 52.9279 23.3988 53.0035 23.9209H54.4596C54.3834 23.265 54.0855 22.6966 53.5766 22.3133C53.1559 21.9938 52.5827 21.7962 51.8987 21.7962C50.151 21.7962 49.011 23.1081 49.011 24.8495C49.011 26.5909 50.1862 27.8733 51.9107 27.8733C52.7408 27.8733 53.3372 27.647 53.7938 27.2118C54.1969 26.8285 54.4602 26.3002 54.5011 25.7199H53.045V25.7204Z" fill="white"/>
</svg>
